<svg width="24.000000" height="24.000000" viewBox="0 0 24 24" fill="none" xmlns="http://www.w3.org/2000/svg" xmlns:xlink="http://www.w3.org/1999/xlink">
	<desc>
			Created with Pixso.
	</desc>
	<defs/>
	<g opacity="0.000000">
		<path id="Vector" d="M0 0L24 0L24 24L0 24L0 0Z" fill="#000000" fill-opacity="1.000000" fill-rule="evenodd"/>
	</g>
	<path id="Vector" d="M12 15.5C11.86 15.5 11.73 15.47 11.61 15.42C11.49 15.37 11.38 15.3 11.29 15.21L7.29 11.21C7.19 11.11 7.12 11 7.07 10.88C7.02 10.76 6.99 10.63 6.99 10.5C6.99 10.36 7.02 10.23 7.07 10.11C7.12 9.99 7.19 9.88 7.29 9.78C7.38 9.69 7.49 9.62 7.61 9.57C7.73 9.52 7.86 9.49 8 9.49C8.13 9.49 8.26 9.52 8.38 9.57C8.5 9.62 8.61 9.69 8.7 9.78L12 13.1L15.3 9.91C15.39 9.81 15.5 9.73 15.62 9.67C15.75 9.62 15.89 9.59 16.02 9.58C16.16 9.58 16.3 9.61 16.42 9.66C16.55 9.71 16.67 9.79 16.76 9.89C16.86 9.99 16.93 10.11 16.98 10.24C17.02 10.37 17.04 10.5 17.04 10.64C17.03 10.78 16.99 10.91 16.93 11.04C16.87 11.16 16.78 11.27 16.68 11.36L12.68 15.22C12.49 15.39 12.25 15.49 12 15.5Z" fill="#000000" fill-opacity="1.000000" fill-rule="nonzero"/>
</svg>
